<svg xmlns="http://www.w3.org/2000/svg" version="1.1" xmlns:xlink="http://www.w3.org/1999/xlink" xmlns:svgjs="http://svgjs.dev/svgjs" viewBox="0 0 5.268574818346485 2.752441818046004"><g transform="matrix(1,0,0,1,0.3139873075962729,0.3634209090230023)"><g><path d=" M 0.5126190842848558 1.2645 Q 0.4931190842848558 1.2645 0.4781190842848558 1.2554999999999998 Q 0.4631190842848558 1.2465 0.4631190842848558 1.2225 Q 0.4631190842848558 1.2165 0.4661190842848558 1.20075 Q 0.4691190842848558 1.1849999999999998 0.4796190842848558 1.134 L 0.4886190842848558 1.134 Q 0.5141190842848558 1.14 0.5291190842848558 1.1437499999999998 Q 0.5441190842848558 1.1475 0.5636190842848559 1.1475 Q 0.5951190842848558 1.1475 0.6176190842848558 1.1332499999999999 Q 0.6401190842848559 1.119 0.6521190842848558 1.0724999999999998 Q 0.6641190842848558 1.0259999999999998 0.6641190842848558 0.9284999999999999 L 0.6641190842848558 0.09899999999999987 L 0.5426190842848558 0.038999999999999924 L 0.5426190842848558 0.014999999999999902 L 0.9431190842848558 0.014999999999999902 L 0.9431190842848558 0.038999999999999924 L 0.8201190842848558 0.09899999999999987 L 0.8201190842848558 0.6435 Q 0.8201190842848558 0.813 0.7863690842848559 0.9464999999999999 Q 0.7526190842848558 1.0799999999999998 0.6881190842848558 1.1504999999999999 Q 0.6461190842848559 1.1969999999999998 0.6191190842848557 1.2209999999999999 Q 0.5921190842848558 1.2449999999999999 0.5681190842848558 1.2547499999999998 Q 0.5441190842848558 1.2645 0.5126190842848558 1.2645 M 1.633155705378606 1.0199999999999998 Q 1.478655705378606 1.0199999999999998 1.366155705378606 0.9569999999999999 Q 1.253655705378606 0.8939999999999999 1.192155705378606 0.7844999999999999 Q 1.130655705378606 0.6749999999999998 1.130655705378606 0.5354999999999999 Q 1.130655705378606 0.4274999999999999 1.172655705378606 0.3314999999999999 Q 1.214655705378606 0.23549999999999993 1.287405705378606 0.16049999999999986 Q 1.360155705378606 0.08549999999999991 1.454655705378606 0.042749999999999844 Q 1.549155705378606 -2.220446049250313e-16 1.655655705378606 -2.220446049250313e-16 Q 1.732155705378606 -2.220446049250313e-16 1.784655705378606 0.009749999999999925 Q 1.837155705378606 0.01949999999999985 1.878405705378606 0.03524999999999989 Q 1.919655705378606 0.05099999999999982 1.9616557053786061 0.07199999999999984 L 1.970655705378606 0.33899999999999986 L 1.9436557053786059 0.33899999999999986 L 1.840155705378606 0.1439999999999999 Q 1.789155705378606 0.10799999999999987 1.747905705378606 0.09149999999999991 Q 1.706655705378606 0.07499999999999984 1.655655705378606 0.07499999999999984 Q 1.5521557053786061 0.07499999999999984 1.4696557053786061 0.1289999999999999 Q 1.387155705378606 0.18299999999999983 1.339905705378606 0.2782499999999999 Q 1.292655705378606 0.37349999999999983 1.292655705378606 0.4979999999999999 Q 1.292655705378606 0.6375 1.338405705378606 0.73725 Q 1.384155705378606 0.8369999999999999 1.462155705378606 0.8894999999999998 Q 1.5401557053786061 0.942 1.6346557053786062 0.942 Q 1.712655705378606 0.942 1.765905705378606 0.9209999999999999 Q 1.819155705378606 0.8999999999999999 1.861155705378606 0.8714999999999999 L 1.9616557053786061 0.7034999999999999 L 1.9871557053786062 0.7034999999999999 L 1.969155705378606 0.9449999999999998 Q 1.9031557053786061 0.9779999999999999 1.828155705378606 0.9989999999999999 Q 1.753155705378606 1.0199999999999998 1.633155705378606 1.0199999999999998" fill="#a38178" fill-rule="nonzero"></path></g><g><path d=" M 0.051346153846153854 2.0255999999999994 L 0.051346153846153854 1.6159846153846147 L 0.1903846153846154 1.6159846153846147 Q 0.2555769230769231 1.6159846153846147 0.2991346153846154 1.6433884615384609 Q 0.34269230769230774 1.670792307692307 0.3646153846153847 1.7172346153846147 Q 0.38653846153846155 1.7636769230769225 0.38653846153846155 1.820215384615384 Q 0.38653846153846155 1.8825230769230763 0.3625961538461539 1.9286769230769225 Q 0.3386538461538462 1.9748307692307687 0.2945192307692308 2.000215384615384 Q 0.2503846153846154 2.0255999999999994 0.1903846153846154 2.0255999999999994 L 0.051346153846153854 2.0255999999999994 M 0.3461538461538462 1.820215384615384 Q 0.3461538461538462 1.7711769230769225 0.32798076923076924 1.7330999999999994 Q 0.30980769230769234 1.6950230769230763 0.27519230769230774 1.6733884615384609 Q 0.2405769230769231 1.6517538461538455 0.1903846153846154 1.6517538461538455 L 0.09173076923076924 1.6517538461538455 L 0.09173076923076924 1.9898307692307686 L 0.1903846153846154 1.9898307692307686 Q 0.24115384615384616 1.9898307692307686 0.2757692307692308 1.9673307692307687 Q 0.3103846153846154 1.9448307692307687 0.3282692307692308 1.906465384615384 Q 0.3461538461538462 1.8680999999999994 0.3461538461538462 1.820215384615384 M 0.7396308781550481 1.9898307692307686 L 0.7396308781550481 2.0255999999999994 L 0.46443857046274045 2.0255999999999994 L 0.46443857046274045 1.6159846153846147 L 0.7344385704627405 1.6159846153846147 L 0.7344385704627405 1.6517538461538455 L 0.5048231858473559 1.6517538461538455 L 0.5048231858473559 1.7994461538461533 L 0.7050154935396635 1.7994461538461533 L 0.7050154935396635 1.8334846153846147 L 0.5048231858473559 1.8334846153846147 L 0.5048231858473559 1.9898307692307686 L 0.7396308781550481 1.9898307692307686 M 1.0534657639723557 1.692715384615384 Q 1.0448119178185098 1.6829076923076918 1.033273456280048 1.6751192307692302 Q 1.0217349947415866 1.6673307692307686 1.0073119178185097 1.6615615384615379 Q 0.9928888408954327 1.6557923076923071 0.976446533203125 1.6523307692307685 Q 0.9600042255108173 1.64886923076923 0.9415426870492789 1.64886923076923 Q 0.8878888408954327 1.64886923076923 0.8627926870492789 1.6693499999999994 Q 0.837696533203125 1.6898307692307686 0.837696533203125 1.7250230769230763 Q 0.837696533203125 1.7492538461538456 0.8495234562800481 1.7630999999999994 Q 0.8613503793569712 1.7769461538461533 0.8867349947415866 1.7855999999999994 Q 0.9121196101262019 1.7942538461538455 0.9513503793569712 1.8034846153846147 Q 0.9951965332031251 1.812715384615384 1.0269273024338943 1.8254076923076916 Q 1.0586580716646634 1.8380999999999994 1.0759657639723559 1.8597346153846148 Q 1.0932734562800481 1.8813692307692302 1.0932734562800481 1.918292307692307 Q 1.0932734562800481 1.9465615384615378 1.0823119178185097 1.9673307692307687 Q 1.0713503793569712 1.9880999999999993 1.0517349947415866 2.0019461538461534 Q 1.032119610126202 2.015792307692307 1.0050042255108174 2.0224269230769223 Q 0.9778888408954327 2.029061538461538 0.9455811485877404 2.029061538461538 Q 0.9138503793569712 2.029061538461538 0.8847157639723559 2.0224269230769223 Q 0.8555811485877405 2.015792307692307 0.829619610126202 2.002811538461538 Q 0.8036580716646635 1.9898307692307686 0.7811580716646634 1.969638461538461 L 0.8013503793569712 1.9367538461538456 Q 0.8123119178185096 1.948292307692307 0.8276003793569712 1.958388461538461 Q 0.8428888408954327 1.9684846153846147 0.8616388408954327 1.9765615384615378 Q 0.8803888408954328 1.984638461538461 0.9020234562800481 1.988965384615384 Q 0.9236580716646635 1.993292307692307 0.9467349947415866 1.993292307692307 Q 0.9957734562800481 1.993292307692307 1.0231773024338944 1.9754076923076918 Q 1.0505811485877405 1.9575230769230763 1.0505811485877405 1.9223307692307685 Q 1.0505811485877405 1.8969461538461532 1.0367349947415865 1.8816576923076918 Q 1.0228888408954329 1.8663692307692301 0.9951965332031251 1.856561538461538 Q 0.9675042255108174 1.8467538461538455 0.927119610126202 1.8375230769230764 Q 0.8844273024338942 1.827715384615384 0.8550042255108173 1.8155999999999994 Q 0.8255811485877405 1.8034846153846147 0.810869610126202 1.7835807692307686 Q 0.7961580716646635 1.7636769230769225 0.7961580716646635 1.730792307692307 Q 0.7961580716646635 1.692715384615384 0.8149080716646635 1.666465384615384 Q 0.8336580716646635 1.640215384615384 0.8665426870492788 1.6266576923076916 Q 0.8994273024338942 1.6130999999999993 0.9421196101262019 1.6130999999999993 Q 0.9692349947415866 1.6130999999999993 0.9926003793569712 1.6185807692307685 Q 1.0159657639723558 1.6240615384615378 1.035869610126202 1.6344461538461532 Q 1.0557734562800483 1.6448307692307687 1.0730811485877405 1.6604076923076918 L 1.0534657639723557 1.692715384615384 M 1.1648088191105772 2.0255999999999994 L 1.1648088191105772 1.6159846153846147 L 1.2051934344951925 1.6159846153846147 L 1.2051934344951925 2.0255999999999994 L 1.1648088191105772 2.0255999999999994 M 1.4728775728665866 2.028484615384615 Q 1.4319160344050483 2.028484615384615 1.3967237267127406 2.010888461538461 Q 1.3615314190204328 1.993292307692307 1.3355698805588943 1.963292307692307 Q 1.3096083420973559 1.933292307692307 1.2954737267127405 1.8963692307692301 Q 1.2813391113281252 1.8594461538461533 1.2813391113281252 1.820215384615384 Q 1.2813391113281252 1.7786769230769224 1.2954737267127405 1.741465384615384 Q 1.3096083420973559 1.7042538461538455 1.3349929574819712 1.6754076923076917 Q 1.3603775728665868 1.6465615384615377 1.3949929574819713 1.6298307692307685 Q 1.429608342097356 1.6130999999999993 1.4705698805588945 1.6130999999999993 Q 1.5311468036358176 1.6130999999999993 1.5692237267127405 1.6379076923076916 Q 1.6073006497896636 1.662715384615384 1.6269160344050482 1.7025230769230764 L 1.595762188251202 1.723292307692307 Q 1.5761468036358175 1.685215384615384 1.543262188251202 1.6673307692307686 Q 1.5103775728665867 1.6494461538461533 1.4699929574819712 1.6494461538461533 Q 1.4359544959435098 1.6494461538461533 1.4085506497896636 1.6638692307692302 Q 1.3811468036358174 1.678292307692307 1.3615314190204328 1.7025230769230764 Q 1.3419160344050483 1.7267538461538456 1.3318198805588943 1.7573307692307685 Q 1.3217237267127404 1.7879076923076918 1.3217237267127404 1.8207923076923072 Q 1.3217237267127404 1.8554076923076916 1.3332621882512021 1.8862730769230762 Q 1.3448006497896636 1.917138461538461 1.3661468036358175 1.9410807692307686 Q 1.3874929574819712 1.9650230769230763 1.4154737267127406 1.9785807692307686 Q 1.4434544959435098 1.992138461538461 1.475762188251202 1.992138461538461 Q 1.513262188251202 1.992138461538461 1.5467237267127405 1.973388461538461 Q 1.580185265174279 1.9546384615384609 1.610762188251202 1.9154076923076917 L 1.610762188251202 1.9580999999999995 Q 1.5524929574819712 2.028484615384615 1.4728775728665866 2.028484615384615 M 1.6044160344050482 1.8554076923076916 L 1.513262188251202 1.8554076923076916 L 1.513262188251202 1.8242538461538456 L 1.6384544959435097 1.8242538461538456 L 1.6384544959435097 2.0255999999999994 L 1.6044160344050482 2.0255999999999994 L 1.6044160344050482 1.8554076923076916 M 1.7624949293870193 1.6904076923076916 L 1.7624949293870193 2.0255999999999994 L 1.722110314002404 2.0255999999999994 L 1.722110314002404 1.6159846153846147 L 1.7555718524639425 1.6159846153846147 L 2.0244180063100963 1.9575230769230763 L 2.0244180063100963 1.616561538461538 L 2.064802621694712 1.616561538461538 L 2.064802621694712 2.0255999999999994 L 2.027302621694712 2.0255999999999994 L 1.7624949293870193 1.6904076923076916" fill="#b07b6d" fill-rule="nonzero"></path></g><g clip-path="url(#SvgjsClipPath1034)"><g clip-path="url(#SvgjsClipPath103370169305-9f2f-43c4-a59b-d1a0661409b7)"><path d=" M 4.640600203153939 1.0127999999999997 C 4.640600203153939 1.5994554721172407 4.165022073844451 2.075033601426729 3.57836660172721 2.075033601426729 C 2.9917111296099694 2.075033601426729 2.516133000300481 1.5994554721172407 2.516133000300481 1.0127999999999997 C 2.516133000300481 0.42614452788275875 2.9917111296099694 -0.04943360142672959 3.57836660172721 -0.04943360142672959 C 4.165022073844451 -0.04943360142672959 4.640600203153939 0.42614452788275875 4.640600203153939 1.0127999999999997 Z" fill="#f2e5dd" transform="matrix(1,0,0,1,0,0)" fill-rule="nonzero"></path></g><g clip-path="url(#SvgjsClipPath103370169305-9f2f-43c4-a59b-d1a0661409b7)"><path d=" M 4.121866139931882 1.5518546651880725 C 4.121866139931882 1.5725146336227662 4.112301799576798 1.5916226212555749 4.1062511437571825 1.6102629453400823 C 4.099977002702095 1.629586140977419 4.094915475980214 1.6496418715532455 4.0832114714262655 1.6657203926607747 C 4.070813907857858 1.6817218575261461 4.056005989780583 1.6957004428353732 4.039317315733483 1.7071562107633693 C 4.022943698163964 1.7188397489025145 4.004829960221174 1.7278679856256383 3.985643611681093 1.733908221172396 C 3.9670198420584715 1.7399588769920118 3.9471544877943434 1.7458522654237039 3.9264903807441787 1.7458522654237039 C 3.906045384819773 1.7463582966655509 3.885644377393319 1.74371307538104 3.8660045156253773 1.7380095891048446 C 3.8466854586035133 1.7317354480497573 3.8288563031514573 1.7200728296505252 3.8127736434284563 1.7083688250965763 C 3.7964805185903936 1.6963033394727487 3.782157554446008 1.6817835200847373 3.7703155873043532 1.6653272241909642 C 3.7586115827504045 1.6492487030834353 3.751820114761355 1.629975170831759 3.7455459737062684 1.6106561138098936 C 3.739602501478697 1.5916340792378685 3.7367123626730114 1.5717900425662519 3.736983178295335 1.5518629424190165 C 3.736860474174388 1.5319603585825763 3.7399045241990465 1.5121649529609955 3.746001221408155 1.4932187611851195 C 3.7526971557560973 1.474555534130607 3.76234713745334 1.457088871631977 3.7745824998556703 1.4414860677889516 C 3.7861014669687263 1.4254833471732373 3.8001004826495386 1.411421461661523 3.816051426882039 1.399830903066357 C 3.8319354456370878 1.388126657245012 3.8496002151815945 1.3790560125876763 3.8683676650597167 1.372967150039595 C 3.886991434682336 1.3669123556045075 3.9058304123094842 1.3570417577045186 3.926490380744179 1.3570417577045186 C 3.947150349178874 1.3570417577045186 3.965778257416965 1.3675207320788465 3.9844309973478875 1.3735713878984623 C 4.00340438144022 1.3791089382129273 4.021367560153559 1.3876517878281538 4.037637037851979 1.398874882892396 C 4.053578544832709 1.4106521721620648 4.067548000793611 1.4248870477862234 4.079023192568913 1.4410473745489525 C 4.090727197122862 1.4571258956564814 4.105559994973412 1.4723146144375965 4.111829997413027 1.4916336714594616 C 4.118265398276333 1.5110685572752036 4.121650931364806 1.5313831519021663 4.121866139931882 1.5518546651880725 Z" fill="#d18f53" transform="matrix(1,0,0,1,0,0)" fill-rule="nonzero"></path></g><g clip-path="url(#SvgjsClipPath103370169305-9f2f-43c4-a59b-d1a0661409b7)"><path d=" M 3.393908510153833 0.25401382357330654 C 3.3971941629356794 0.269433705625225 3.398858656931626 0.2851548514169371 3.398874848719867 0.3009208913294806 C 3.398874848719866 0.32294660286983246 3.3987920764104316 0.34520407687659993 3.39233583627459 0.36506943114072843 C 3.3857607424593166 0.3858710296289035 3.3760019872098614 0.40552815036027995 3.363406914127454 0.4233411369821719 C 3.3501934796849295 0.44066049082558867 3.3343935917999508 0.4558434027899779 3.3165619256033545 0.46835685746778266 C 3.2994156417041283 0.48083478311493755 3.277489256935097 0.4849775372021028 3.2568913677324787 0.49166553980435923 C 3.2370260134683506 0.49811764132472935 3.2169371739687502 0.5087083583167933 3.1949114624283976 0.5087083583167933 C 3.1726919103649216 0.5084864594108196 3.150647943794246 0.5047442512844118 3.1295999716696037 0.497621007468127 C 3.1100170773930964 0.4908764274792038 3.091727278447542 0.4808427904543584 3.075516544685512 0.4679512731515568 C 3.0800506919686477 0.48903904582794155 3.0883851031861935 0.5091254957469888 3.100112336433787 0.5272286625526215 C 3.1121344268197997 0.5467022583447725 3.1273706832955632 0.5639969767305155 3.145173581689585 0.5783778111672813 C 3.162969628217867 0.59264775731368 3.1839482700438806 0.6006725327132935 3.2058994865057433 0.6083786347215873 C 3.227050533758325 0.6164120532870022 3.2494333956562236 0.6207205966751684 3.2720552548207635 0.6211131545279881 C 3.2940809663611152 0.6211131545279881 3.3165081236022225 0.6243619676732671 3.336381755097294 0.6179098661528973 C 3.356979644299913 0.6112218635506405 3.375483394073854 0.5983673238955607 3.3926296779730793 0.585889398248405 C 3.410314501794701 0.5734980915103758 3.425968313221799 0.5584362544005361 3.439031834641706 0.5412420145397758 C 3.4515097602888627 0.52409573064055 3.4559422174590457 0.502450771723593 3.4626219428303595 0.4818528825209747 C 3.4698147990957864 0.4619703187354457 3.473771914793857 0.44106271909200384 3.4743425018461966 0.4199267792180259 C 3.47483303562786 0.398913281596501 3.4720503179348867 0.3779514448054217 3.4660942412111106 0.35779374514149065 C 3.459715896910063 0.33768523090463104 3.45023898182561 0.318695096066181 3.438005458004728 0.30150857472646075 C 3.4257643239208724 0.2835608538225444 3.4108999218624385 0.26755110459470954 3.393908510153833 0.25401382357330615 Z" fill="#d18f53" transform="matrix(1,0,0,1,0,0)" fill-rule="nonzero"></path></g><g clip-path="url(#SvgjsClipPath103370169305-9f2f-43c4-a59b-d1a0661409b7)"><path d=" M 3.6461985093082667 0.03566047128675977 C 3.6454701129852483 0.04705821829580353 3.644712746353929 0.058836717928243285 3.644712746353929 0.08203779626255667 C 3.644597696402928 0.09812636539096467 3.6453935840216656 0.11420854593695934 3.6470965888656246 0.13020714173759768 C 3.648464973748733 0.14280569076955016 3.649092364075427 0.15547372408410537 3.648975520289774 0.16814582976661197 C 3.648975520289773 0.18850367927187103 3.648532688434302 0.1983908316337468 3.648060886270529 0.20886152877713088 C 3.6475601137984537 0.2200357905507035 3.6470386482490205 0.23155355740842593 3.6470386482490205 0.25424558603972136 C 3.6470386482490205 0.27568361418309345 3.6470055393252467 0.2864067668702512 3.646968291786002 0.2971257809419374 C 3.6469351828622276 0.3079317059385288 3.6468979353229827 0.3187334923196487 3.6468979353229827 0.34034120369736043 C 3.64676952901054 0.3565995868127633 3.647652760164066 0.3728502107126039 3.649542510609393 0.3889989057980549 C 3.6510237250039173 0.4014243749658293 3.6517038631027647 0.4139322804909747 3.651578709421467 0.42644509858594315 C 3.651578709421467 0.4579482395564731 3.653014808990145 0.48772557787530757 3.655965641821462 0.5174698072703684 C 3.656855444147875 0.5264050780737546 3.657410018621082 0.5356217747292161 3.6579935634025915 0.5453764913959976 C 3.65879325091953 0.5665937831185767 3.661107103907739 0.5877268815404855 3.664917467086734 0.6086145358034706 C 3.669610903373638 0.6297720132678529 3.675719439163839 0.6505905337280309 3.6832018702406764 0.6709296689607616 C 3.6862230595350125 0.6797076723762241 3.6890745655950092 0.6879973191660259 3.6916280913410437 0.6962248867237525 C 3.6940326269300976 0.7039806521177061 3.696275756515756 0.7118854076686405 3.6986637376429234 0.720253688152405 C 3.704303724484121 0.7416944829744354 3.711284121198341 0.7627600762268534 3.719563745774975 0.7833261879410135 C 3.7310028789387353 0.8103720400485297 3.7441098741375893 0.8350588813371813 3.7588226521394597 0.8622744166790375 C 3.7626425942198325 0.8693100629809164 3.766338377836055 0.8765898875956252 3.7702493694568053 0.8842752965265599 C 3.779507774442003 0.9033904294238488 3.789944771937739 0.9219119188216575 3.8015000548835634 0.939732743847253 C 3.814141884826941 0.9578353365352588 3.8278135768248847 0.9751964784659404 3.8424475163604956 0.9917303086336084 C 3.847451102465775 0.9975947267569985 3.852177401334449 1.0031321942581244 3.856796096200859 1.0087317409913257 L 3.858588116700102 1.0109003754984929 C 3.876144123531026 1.0321811362539408 3.894296090989873 1.0541861547169347 3.9150802178887183 1.0749702816157791 C 3.932172699786812 1.0920627635138733 3.95499302549773 1.1143243761361123 3.9799447381765694 1.1349139881077874 C 4.005024747935032 1.1556070654662545 4.028130638113497 1.173018220755669 4.050582627047433 1.1881448603047085 C 4.069018306317674 1.2001272904879743 4.088133572061476 1.2110301638139773 4.10783209486737 1.2207985363763707 C 4.114747721320569 1.2243867159903281 4.121282595150372 1.227780380677117 4.127726419439799 1.2312650949042827 C 4.1311449158194185 1.2331164355586204 4.134563412199038 1.2349732943669198 4.137981908578656 1.2368356713291822 C 4.159655837803914 1.2486390026544518 4.182070579198606 1.2608396410650042 4.206422192634051 1.2711447935895208 C 4.2302453089216705 1.2807886006925209 4.254558704567959 1.2891739593046214 4.279261824935857 1.2962661895027003 C 4.283897074264153 1.297681595994019 4.288522666823014 1.2991011411008102 4.293138602612443 1.3005248248230727 C 4.297095119003382 1.301749855002694 4.30104887631734 1.302991439644202 4.3049998745543165 1.3042495787475967 C 4.330077840149323 1.3125704905909379 4.355575011006256 1.3195702286161903 4.381386300315363 1.3252199433426677 C 4.411336762520614 1.3315009678590994 4.4415878984268335 1.3362513631276607 4.472021979145446 1.3394526419498205 C 4.486068440056377 1.340847355363782 4.5362408754197165 1.3415840289177434 4.588552974981923 1.3419771973875545 C 4.599634295362684 1.3079477337231051 4.6089748394438 1.2733758411969032 4.616538292801513 1.2383959293620106 C 4.558005854185352 1.2381186421254071 4.495761077491083 1.2375102656510681 4.482277468284305 1.2361693542382395 C 4.455317120583706 1.233307349623707 4.428519548347988 1.2290777534285644 4.401988328133453 1.2234969136639142 C 4.379708562312409 1.2185321085934433 4.3576980864216885 1.2124279104660998 4.33604362920749 1.2052083718945013 C 4.331990545122211 1.2039391964831816 4.327938840575422 1.2026741596873338 4.323888515567125 1.2014132615069577 C 4.319123589620716 1.1999343962450728 4.314349006904872 1.1984693263680934 4.3095647674195945 1.1970180518760194 C 4.28830798180254 1.1909512173611112 4.267377529475741 1.1837943619291458 4.246856465792496 1.1755758851171763 C 4.2272145967638375 1.1672655452500151 4.207982450666878 1.1567948481066308 4.187620462546147 1.145707497257964 C 4.184116434780113 1.1437982159870228 4.18061516609106 1.1418958324085342 4.177116656478988 1.1400003465224988 C 4.169886495249941 1.1360893549017486 4.162631502328061 1.1323314920534506 4.155645519411843 1.1286977876693038 C 4.1394740825350045 1.1207137761392778 4.123761472346905 1.1118322550093882 4.108581184267744 1.102094767417258 C 4.088939315239088 1.0888511979078395 4.068469723116092 1.0734141621984226 4.04600531833574 1.0548773035007077 C 4.024447270343689 1.0370812569724257 4.003932153450505 1.017058635320373 3.988478563279201 1.001600906533598 C 3.971212259531296 0.9843304641702209 3.9553986098139555 0.9651810903826954 3.9386620488464263 0.9448770428785671 L 3.9368617511162403 0.9426959925249849 C 3.9317008976230383 0.9364384059317845 3.9264738262822894 0.9303091164182066 3.9214164381758803 0.9243826190627413 C 3.909357949447235 0.910812009294592 3.898064135100549 0.8965807531444979 3.887587395310258 0.8817548797042986 C 3.8784334997003143 0.8674214280409417 3.8701415822880794 0.8525554021070387 3.862755702480097 0.8372357930752921 C 3.8587246910106683 0.8293186216779426 3.8545612438461445 0.8211324402749328 3.8501205094450173 0.8129297044100365 C 3.8367072567012586 0.7881311205036495 3.8248128758356112 0.7657494880327312 3.815165763171094 0.7429374395527567 C 3.8085929554710907 0.72628712220089 3.8030329267849003 0.7092546107595245 3.798516113128472 0.6919331424796066 C 3.7960784686156446 0.6833455153758424 3.7935497745624396 0.6744640465735886 3.790781040811877 0.665524637154731 C 3.7877598515175412 0.6557740591034212 3.7845068997567894 0.6463297385970164 3.7813656906137743 0.6371958142509889 C 3.7754192005968643 0.6211483476466241 3.7705103397827413 0.6047352514917133 3.7666694670737915 0.5880580327555732 C 3.7638848200175543 0.5719039314345103 3.7621979196737616 0.5555797138453137 3.761620356198325 0.5391975384967596 C 3.7609995638775704 0.5288799701258273 3.7603787715568173 0.5182064808243302 3.7592737612258746 0.5072557042862295 C 3.7566622948632356 0.4809506643481456 3.755391739913426 0.45452974317685446 3.755391739913426 0.42648648474066 C 3.755520146225867 0.4102281016252571 3.754636915072341 0.3939774777254169 3.7527471646270145 0.37782878263996544 C 3.7512659502324923 0.36540331347219146 3.7505858121336444 0.3528954079470457 3.7507109658149425 0.34038258985207726 C 3.7507109658149407 0.3189445617087059 3.7507482133541865 0.30822554763701965 3.75078132227796 0.2975065335653334 C 3.7508185698172056 0.286700608568742 3.750851678740979 0.27589468357215025 3.750851678740979 0.25428697219443896 C 3.750851678740979 0.23392912268917876 3.751298649211922 0.22403783171183156 3.7517704513756955 0.21356713456844673 C 3.752271223847771 0.20241356587223253 3.752788550781732 0.19087510593715165 3.752788550781732 0.16818721592132768 C 3.752903600732733 0.15209864679291932 3.7521077131139946 0.13601646624692537 3.7504047082700365 0.12001787044628628 C 3.749036323386928 0.10741932141433419 3.748408933060234 0.09475128809977898 3.748525776845887 0.08207918241727274 C 3.748525776845888 0.06221382815314505 3.74914243055117 0.05257085410409927 3.74980047041117 0.04234847388901622 C 3.750533005349659 0.030950726879972454 3.751290371980979 0.019172227247532717 3.751290371980979 -0.004032989702252132 C 3.751290371980979 -0.01817877738450066 3.7513607284439976 -0.027445137425622306 3.7514559165998462 -0.035291952359952895 C 3.7174282201915823 -0.040870806015796096 3.6828845763878473 -0.0448024907139045 3.6478249851886426 -0.047087006454279226 C 3.647663579185246 -0.03654595284787584 3.64750217318185 -0.02541721584449228 3.64750217318185 -0.004045405548667641 C 3.6474773414890196 0.015795117022630936 3.6468565491682665 0.025450506918092225 3.6461985093082667 0.03566047128675977 Z" fill="#e3c19e" transform="matrix(1,0,0,1,0,0)" fill-rule="nonzero"></path></g><g clip-path="url(#SvgjsClipPath103370169305-9f2f-43c4-a59b-d1a0661409b7)"><path d=" M 3.8094379193582713 0.035987421909023404 C 3.8087840181137445 0.047310673839576406 3.808105285176387 0.059018817008997596 3.808105285176387 0.08204607349349996 C 3.808105285176387 0.10453117135121046 3.808519146723556 0.11598272036138654 3.808933008270726 0.12701213059344946 C 3.8093220381250648 0.13759043173909785 3.809694513517517 0.14758518810323754 3.809694513517517 0.16815410699755415 C 3.8095838923204712 0.18416106063446339 3.810339604877787 0.2001622724056281 3.8119583361805347 0.2160875513907115 C 3.8132720394623796 0.22876597894264528 3.813874462047731 0.24150804564474415 3.813762772526192 0.2542538632706646 C 3.8139075863828653 0.26639309854282867 3.813110581766999 0.2785252799176846 3.811378930014496 0.29054124372647266 C 3.809042827876098 0.30703867489647846 3.807948537877221 0.3236882073066894 3.808105285176387 0.3403494809283037 C 3.808105285176387 0.36340570772110814 3.808800572575631 0.37511385089052857 3.8094668896665738 0.38645779589844037 C 3.8100752661409123 0.3967422553455987 3.8106463950760068 0.40645558585766306 3.8106463950760068 0.4264533758168857 C 3.810510903512098 0.459922891719875 3.8126097084675665 0.49336412719945066 3.8169288133620327 0.5265540682306981 C 3.820729425446048 0.559903550798838 3.8267856786665106 0.5929571428616583 3.8350559491280554 0.6254876710815666 C 3.8359912762246573 0.6288923720762802 3.8369210851672984 0.6323108684558996 3.8378453759559763 0.6357431602204235 C 3.84508694251611 0.6649632846251063 3.854325344812999 0.6936519738113912 3.8654954659223613 0.7216070154116485 C 3.87473257219784 0.7417656781774425 3.8863166735515406 0.7607636599634138 3.9000073803408117 0.7782067206025269 C 3.906567085863446 0.7871833775606307 3.912758454609099 0.7956634006621305 3.917439228707585 0.8036840374462721 C 3.9216978640279576 0.8109804165228679 3.9257909547294627 0.8185458056051236 3.9301282237437976 0.8265623037737937 C 3.9407851362006943 0.8475207159654972 3.9531591027984034 0.8675607556159111 3.9671233074452665 0.8864770399574998 C 3.9816994770833345 0.9045062908780181 3.997758100204507 0.9212847833115191 4.0151312469169085 0.9366370594744243 C 4.022030318908222 0.9430643293019646 4.028544499660668 0.949131539583467 4.034723452559906 0.9553104924827054 C 4.057202248754139 0.978145209960521 4.081139258860793 0.9994970506245264 4.106383579452277 1.0192314084430099 C 4.131555095484126 1.0391536719796128 4.157995980363774 1.0574173199010313 4.185538738963887 1.073906657439554 C 4.1934310786684055 1.0785129364595487 4.201488962991793 1.083839334571618 4.210022788094424 1.0894554357667061 C 4.228605640711508 1.1024579289470189 4.2483541172192805 1.1137093234832631 4.2690146130279425 1.1230651320123286 C 4.292260880501689 1.1323025532705497 4.316223210124587 1.1396246837988038 4.3406623240739 1.1449584078575867 C 4.3493534165644565 1.1470856562100376 4.357531320736523 1.1490970233292805 4.365518848596891 1.151282212298335 C 4.373229089220656 1.153388767573427 4.380972438768195 1.1556981150066319 4.389171036017619 1.1581398981349307 C 4.4132962701125225 1.1659946274091486 4.438012716097689 1.1719014414225146 4.463082569726593 1.1758035089681185 C 4.481784973043176 1.1782866782511343 4.559768904376295 1.1800538670575476 4.627269722719616 1.1810678278481124 C 4.632683031756591 1.147062204055698 4.636449171835832 1.1125420124063028 4.6385681429573395 1.0775072528999268 C 4.572573780645715 1.0766505594972864 4.493265492361653 1.0751151331572881 4.476781386937899 1.0729216669572907 C 4.457123112384844 1.0696589513753385 4.437743337953934 1.0648966765419554 4.41881180002589 1.0586765525037216 C 4.410422826464766 1.0561933832207056 4.401748288436097 1.0535901940890104 4.39290820578856 1.0511732426535416 C 4.383588043746306 1.0486197169075067 4.3743299609361275 1.0463517556290185 4.365378135670854 1.0441375963516628 C 4.346329347881568 1.0400352349627455 4.32762848964054 1.0344574947060248 4.309444747570918 1.0274548373852666 C 4.294657180016093 1.0204825221129579 4.280508418520858 1.0122289625052843 4.267160513296625 1.0027886891739735 C 4.2578362126388996 0.9966387065830371 4.248193238589854 0.9902817932185157 4.237846699910621 0.9842435532453151 C 4.214178104944204 0.9699891328200454 4.191448994756215 0.9542299881817358 4.169799584325037 0.9370633368680097 C 4.148059013574374 0.9200220408449356 4.1274429580502945 0.9015929765257844 4.108080411795673 0.8818914540148652 C 4.100601933638322 0.874412975857514 4.093098623788142 0.8674062998639372 4.085843630866263 0.8606644952605484 C 4.072673615191586 0.8490919629977434 4.060436444800329 0.8364991494095458 4.049245854250078 0.8230030944681377 C 4.03877571064574 0.8084674453578563 4.029462808530348 0.793132292127132 4.0213929721255814 0.7771389578108302 C 4.0168404951067185 0.7687582614806517 4.012163859623704 0.7600878620674539 4.00706922397805 0.751351244806709 C 3.9999186266543543 0.739487015914182 3.9921508168036297 0.7280059083791688 3.9837977891807164 0.7169552116214631 C 3.9749627002957766 0.7058665811907198 3.9673426768175983 0.6938621305109659 3.9610685130101757 0.6811479105603725 C 3.9517738956195188 0.6574937139784615 3.944068599185469 0.6332454654838671 3.9380040089864288 0.6085648724178127 C 3.9370521274279398 0.6050608446517788 3.9361016254079404 0.6015637145781983 3.935152502926432 0.5980734821970698 C 3.928135769793117 0.5700296653252286 3.923004824288703 0.5415474563812984 3.919794100910978 0.5128180034801846 C 3.916080533247834 0.48416914211648165 3.914283139058477 0.45530437404634283 3.9144139007977765 0.4264161282776418 C 3.9144139007977765 0.4033599014848362 3.913718613398532 0.3916517583154154 3.9130522963075896 0.38030781330750396 C 3.91244391983325 0.3700233538603457 3.9118727908981565 0.36031002334828094 3.9118727908981565 0.3403122333890583 C 3.9117281433302993 0.3281730025809239 3.9125251471010465 0.31604083407065703 3.9142566334098516 0.30402485293325104 C 3.916590793419216 0.2875272598097159 3.917683697203811 0.2708777698760374 3.9175261396324896 0.2542166157314189 C 3.9176368535681667 0.23820828320192544 3.9168811409646986 0.22220568889485892 3.915262316969473 0.20627903272279835 C 3.913948707587167 0.1936019823741714 3.9133462850458898 0.18086129830738293 3.913457880623815 0.1681168594583099 C 3.913457880623815 0.14563176160059826 3.913044019076646 0.13418021259042215 3.9126301575294757 0.12315080235835923 C 3.912241127675137 0.11256836259723901 3.9118727908981565 0.10257774484857118 3.9118727908981565 0.08200882595425457 C 3.9118727908981565 0.06198620430220168 3.9124356426023064 0.05226045794372222 3.9130316032302304 0.041959444034676954 C 3.9135985935498523 0.0322047273678954 3.914182138331361 0.02214375315620863 3.9143311284883424 0.0048153701762281495 C 3.880335100068929 -0.006505360662796146 3.8457838268901727 -0.016084902480836938 3.8108119396948723 -0.02388592811996697 C 3.810667088153364 -0.018278104155821304 3.8105801772284593 -0.01183014125092259 3.8105801772284593 -0.004099207549799602 C 3.810600870305817 0.0159648002569705 3.8100380186016674 0.025690546615450352 3.8094379193582713 0.035987421909023404 Z" fill="#b9aaa3" transform="matrix(1,0,0,1,0,0)" fill-rule="nonzero"></path></g><g clip-path="url(#SvgjsClipPath103370169305-9f2f-43c4-a59b-d1a0661409b7)"><path d=" M 3.976762142878838 0.08204607349349996 C 3.9769325083286677 0.09393475619507646 3.976058663936488 0.10581543930206622 3.9741506765162002 0.11755125562515686 C 3.971497934097604 0.13428523455654717 3.9702519910236385 0.1512120634069702 3.9704259225916747 0.16815410699755415 C 3.9702259188696085 0.18541478851769233 3.9716475687279957 0.20265610351565766 3.9746721420656312 0.2196508993118349 C 3.9767532087375876 0.23106409610357442 3.977709670225772 0.24265391422344473 3.977527786741101 0.2542538632706643 C 3.977723396329946 0.2655702616264822 3.976688179006302 0.2768743907396218 3.974440379599218 0.28796702490307935 C 3.971060459535535 0.3052185177338824 3.9694587129828625 0.32277116372278175 3.9696602787294113 0.3403494809283037 C 3.9696602787294113 0.36340984633657925 3.970351427513185 0.37511385089052823 3.9710218832195983 0.38646193451391186 C 3.971630259693937 0.39674639396107014 3.9722013886290313 0.4064597244731345 3.9722013886290313 0.4264533758168857 C 3.9721473594357404 0.45273111101497754 3.9738229818444717 0.4789839112785095 3.9772173905807238 0.5050415450088755 C 3.9804257238414347 0.525978565495198 3.985199902429245 0.5466454602860691 3.9914997525735387 0.5668683215405018 C 3.9929565452195748 0.5719629571861562 3.994334704171648 0.5767720283642641 3.995638368045231 0.5815935153887868 C 3.997471774699192 0.5882939338374584 3.999044448578436 0.5956648079925442 4.000708171998055 0.6034950684649886 C 4.004118431922119 0.6220680163448397 4.00932584016088 0.6402655310551649 4.016256950325209 0.6578309509928515 C 4.024512748525939 0.6763592012818289 4.034096523370193 0.6942667107216577 4.044933416928573 0.7114136055048683 C 4.047685596217248 0.7159909142165604 4.050284646733472 0.720311628769008 4.052796786324791 0.7246240660905128 C 4.065478255152977 0.7465881913133344 4.079579508392565 0.7677013618500996 4.0950106641360655 0.787829001574217 C 4.106254332408746 0.801675159628696 4.118854247291713 0.8143624198723182 4.132622401542815 0.8257014717556826 C 4.138639948438656 0.8309575134047329 4.144326406096763 0.8359197133552935 4.149201695122418 0.8407950023809485 C 4.154334971346522 0.84629517303238 4.159132048237806 0.852099760454851 4.163566829424667 0.858177187362061 C 4.173968882369409 0.8728717857615925 4.186296118129305 0.8861037983105506 4.200218408041984 0.8975188660359786 C 4.214728569286107 0.9081123000135646 4.230445321888813 0.9169452455671754 4.24703856487325 0.9238321832050054 C 4.254554290569847 0.9272548182000966 4.261647877488329 0.9304870768834891 4.267350889608323 0.9338145237227303 C 4.273173921576996 0.9372123270249909 4.279332181398875 0.941355081112156 4.285850500766792 0.9457461521276227 C 4.300518255170401 0.9562350048567079 4.316182508630816 0.965255119659091 4.332616855596928 0.9726761230019321 C 4.350069166866968 0.9795561760871085 4.368168550024232 0.98466543201897 4.386642341964414 0.987926921015122 C 4.394567790592708 0.9895616741264412 4.402054545981002 0.9911095163128547 4.408788073353446 0.9929512001977583 C 4.4340141564070885 0.9997175603506878 4.459674399974599 1.0047467302518047 4.4855883606616604 1.0080033446683065 C 4.501820010541644 1.010163701944531 4.577465624133257 1.011653603514341 4.64057537146111 1.0124978810705663 C 4.64057537146111 0.9774796760260775 4.6388826777331875 0.9428877483751731 4.635497290277343 0.908722098117853 C 4.577457346902314 0.90800611764125 4.5119720342937075 0.9068100577699308 4.499278900642024 0.9051215026574796 C 4.47798565847228 0.902469721706681 4.45689855727508 0.898365687847449 4.436165014698698 0.8928380919374934 C 4.426265446490408 0.8901314374190058 4.416800432906645 0.888178010916367 4.407645815483259 0.8862825250303311 C 4.39585629785803 0.884279960466425 4.384274979167874 0.8812017678671996 4.373046990139901 0.877086521452228 C 4.362798295438854 0.8721557958824884 4.35301143915723 0.8663177546672262 4.343803533216915 0.8596422572390408 C 4.336209173826358 0.8545352057469708 4.328358220276556 0.8492501937896181 4.319658850555057 0.8441721126058503 C 4.31004717001275 0.8387382368625249 4.300163640581454 0.8337999255114585 4.29004705685509 0.8293765622945459 C 4.280805073538433 0.8256205202010467 4.271971455676006 0.8209291341369037 4.263684076300402 0.8153756261538063 C 4.257045901545699 0.8092633441142891 4.251098942906616 0.8024406489754957 4.2459501090041964 0.7950301924949617 C 4.238796471718862 0.7853098099098714 4.230998341431747 0.7760806397562389 4.222608317743845 0.7674049342214081 C 4.215249859435174 0.7600506145282085 4.207961757589522 0.7536812853172724 4.2009095568257555 0.7475395799572797 C 4.19231451084263 0.7405543548163306 4.184366564150642 0.7328086389045846 4.177162181249178 0.7243964422395698 C 4.164476390863609 0.7078124270715863 4.1528844162599 0.6904196265361943 4.142459890519029 0.6723285209901954 C 4.13960424584356 0.6674366775026526 4.136711353628847 0.6626193290936018 4.13390951095451 0.6579633866879464 C 4.125647000562093 0.6449616680480971 4.118282430632155 0.6314106381357054 4.11186724495227 0.6174049550653512 C 4.10760870967511 0.6058730333332363 4.1043884935004815 0.5939838567125905 4.102244963980583 0.5818790798563344 C 4.1003494780945475 0.5729810565921936 4.0983877743609645 0.5637809143986187 4.095772169382855 0.5542165740435354 C 4.09429468365946 0.5488074036220318 4.092767534550405 0.5434561738171324 4.091290048827011 0.5383160134012893 C 4.0864581247579 0.5229467011943946 4.082723974802746 0.5072535902532281 4.080115787053438 0.49135514364398336 C 4.077319904840556 0.46983650389766407 4.075945663818675 0.44815695312892095 4.076002003274575 0.4264575144323575 C 4.076002003274575 0.4034012876395538 4.075310854490802 0.39169314447013337 4.074640398784388 0.38034506084674974 C 4.074032022310049 0.37006060139959146 4.073460893374955 0.3603472708875267 4.073460893374955 0.3403536195437755 C 4.073265512864639 0.32903722967350074 4.074300727919097 0.3177331253388874 4.076548300516839 0.3066404579113601 C 4.079930619310649 0.28938925313069375 4.081533762285371 0.27183650171974694 4.0813325400021165 0.25425800188613723 C 4.081532705443038 0.236995942733791 4.080111055336675 0.21975323910456823 4.07708632052816 0.20275707095638917 C 4.075001303311833 0.1913457441981742 4.074043433561096 0.1797570450430866 4.074226537237218 0.1681582456130256 C 4.074058299815273 0.15626962589802929 4.074932130522394 0.14438912885143929 4.076838003599857 0.13265306348136868 C 4.079491286425073 0.1159191471658057 4.080737232842991 0.09899227288592738 4.080562757524381 0.08205021210897179 C 4.080562757524381 0.08014231037652159 4.080562757524381 0.07832545818444833 4.080562757524381 0.07659137830180879 C 4.046564365655499 0.058324457985788294 4.0115918211278725 0.0419317253653836 3.9758019840894048 0.027486705730165928 C 3.9759095880916684 0.03227094521544362 3.97603374655582 0.03643853099543906 3.9761579050199707 0.040556453389774 C 3.9764600239494046 0.05122166546032714 3.976762142878838 0.06131988721125892 3.976762142878838 0.08204607349349996 Z" fill="#b07b6d" transform="matrix(1,0,0,1,0,0)" fill-rule="nonzero"></path></g><g clip-path="url(#SvgjsClipPath103370169305-9f2f-43c4-a59b-d1a0661409b7)"><path d=" M 4.138081235349977 0.16815410699755415 C 4.138189552491043 0.1809508622351697 4.137605152924904 0.1937441009643755 4.136330601005452 0.20647768626543095 C 4.134768066435972 0.22235396816935904 4.134038669757792 0.238301231905913 4.134145412036396 0.2542538632706639 C 4.134145412036396 0.2738626233755484 4.133441847406209 0.2833938548068584 4.1326968966213045 0.29347966071137505 C 4.131869173526965 0.30446354617324933 4.130966955354136 0.31691250151210365 4.130966955354136 0.3403494809283037 C 4.1308256917151365 0.3568229916151244 4.131818546988992 0.37328668923421543 4.133938481262812 0.38962383673428763 C 4.1355580308602 0.4018329285316533 4.13630212159684 0.4141422362567307 4.136165056386583 0.4264575144323575 C 4.136165056386583 0.45743091262251145 4.14190117743035 0.48581353752738476 4.1469585655367585 0.510856299746602 C 4.147740763860909 0.5147217665971637 4.148489853261285 0.5185913720631972 4.149238942661662 0.5224444230673437 C 4.153452053211847 0.5441969859865644 4.158228015466181 0.5688507183514424 4.16861180168466 0.5933927080985846 C 4.179339591836117 0.618795860469593 4.1924893760049855 0.6431066071080983 4.207878985280087 0.6659881620875595 C 4.2204334734566205 0.6835469924591147 4.2349150860873275 0.6996444598733863 4.251053021880795 0.7139795470973176 C 4.255531003821166 0.718221627955803 4.25974411437135 0.722231946347874 4.263779264456251 0.7262505419708883 C 4.282844708396989 0.7457685460725124 4.3037756159445735 0.7633726868575667 4.326272358078821 0.7788109584613945 C 4.331590478959948 0.7823949994598819 4.337276936618055 0.786852288322896 4.343294483513898 0.791574448576098 C 4.357729974279165 0.8028894232757081 4.374089921238769 0.8157191312379574 4.395242384914594 0.8246833723496456 C 4.417210155838344 0.8339745640835975 4.438598520596054 0.8366232779854813 4.457466468531505 0.8389615957269879 C 4.465367085466967 0.8399383089783078 4.47282487054696 0.8408653588439667 4.479339051299405 0.8421814385639657 C 4.485232439731097 0.8433692212043415 4.491341036167316 0.8448218752349057 4.497817969380517 0.8463614401903758 C 4.508578369606919 0.8489191045518826 4.57107146322949 0.8516630066096151 4.6287058222882935 0.853595740034896 C 4.623451327812237 0.8186402233174421 4.616446888693144 0.7839702525248466 4.607718903231336 0.7497164916953905 C 4.56618375835742 0.7484749070538823 4.528414753562746 0.746960173791242 4.521817800500867 0.7453916385274706 C 4.514782154198988 0.7437361923387933 4.507514745430694 0.7419896966097386 4.499883138500891 0.7404501316542689 C 4.489495213666941 0.7383518536101207 4.4796949722299715 0.7371392392769142 4.4702175427997926 0.7359638724829535 C 4.456895339596412 0.7343084262942761 4.444309809946992 0.7327564454923908 4.435664242226624 0.7290979094154141 C 4.425494549560521 0.7238440733026671 4.415981479488276 0.7174066365744566 4.407323003476467 0.7099195653195864 C 4.4001259511711925 0.704278632431668 4.3926847205530875 0.6984431846165805 4.38428333114555 0.6927774200358318 C 4.367316504124965 0.6810462058668395 4.35153065433758 0.6676928932975464 4.337148639538432 0.652905998581537 C 4.332149192048627 0.6479065510917315 4.327215962406369 0.6432257769932459 4.322440000152035 0.6387022702826851 C 4.311894294859383 0.629499664621981 4.302336278281616 0.6192231670418517 4.293920800936595 0.6080392682529081 C 4.282265863286602 0.5906980814778234 4.272307920789714 0.5722748484073783 4.264184848772478 0.553024652787687 C 4.258155819497649 0.5367516008809311 4.253777242032356 0.5199139046369424 4.25111510111287 0.5027653064994415 C 4.250312209711362 0.4986266910277485 4.249509318309853 0.4944880755560548 4.24867331798457 0.4903494600843614 C 4.244182920197783 0.4681085405394805 4.239936700723826 0.447096789789693 4.239936700723826 0.42650303920254656 C 4.240080115549191 0.410029473010859 4.239087251355514 0.3935656274817118 4.2369651748151504 0.3772286833965694 C 4.235345625217761 0.36501959159919695 4.234601534481121 0.3527102838741192 4.234738599691379 0.34039500569849274 C 4.234738599691379 0.32078624559360863 4.235442164321567 0.31125915277777083 4.236187115106471 0.3011692082577823 C 4.23701483820081 0.2901853227959077 4.2379170563736395 0.27773636745705377 4.2379170563736395 0.2542993880408537 C 4.237807385163706 0.24150250717475774 4.238393173066362 0.22870912043277114 4.239671829333638 0.21597580877297312 C 4.240454027657788 0.2073964589001519 4.241327275522314 0.19792316808544566 4.241679057837409 0.18322694454546198 C 4.207103142722416 0.15553322777695278 4.170833646607014 0.13002294499090664 4.133081787860172 0.10684465739988688 C 4.1337315504892285 0.11726155254214013 4.13473723404885 0.12489729808741393 4.135668422529982 0.13194536023570833 C 4.137413168761038 0.1439338228000414 4.138219887706558 0.15604014193275373 4.1380812353499765 0.16815410699755415 Z" fill="#d18f53" transform="matrix(1,0,0,1,0,0)" fill-rule="nonzero"></path></g><g clip-path="url(#SvgjsClipPath103370169305-9f2f-43c4-a59b-d1a0661409b7)"><path d=" M 4.299739694289796 0.29251536330647077 C 4.298155149554906 0.30840964107323804 4.2974146770074535 0.3243767711170065 4.297521396396968 0.3403494809283041 C 4.297521396396968 0.3633394898735607 4.298183574872438 0.3750269399656231 4.29882092165508 0.38632949881881806 C 4.299404466436588 0.3966470671897499 4.299954902294323 0.40639350662558776 4.299954902294323 0.4264533758168864 C 4.299954902294323 0.43064579328971175 4.299905238908663 0.43484648799348075 4.2998555755230035 0.43904718269724935 C 4.29952862490074 0.4672435699058969 4.299156149508287 0.49920195857831395 4.3121762337822345 0.5305974955465803 C 4.326346853157313 0.5647700434963532 4.349961793038795 0.5900445681819853 4.374967307718768 0.6150252511691269 C 4.397249613418365 0.6373116954841961 4.425044554926258 0.6549173657007801 4.462474193252254 0.6704330351041587 C 4.465660927165458 0.6717532534396288 4.468868354156021 0.6731231351607597 4.472100612839413 0.6744971554973618 C 4.484061211552607 0.6795917911430165 4.536013251568775 0.685290664647538 4.590543649023807 0.6898100327426278 C 4.579140262129281 0.6540525190836916 4.56583638147305 0.6189291689482826 4.550688782031399 0.5845898729902907 C 4.53152699239746 0.5828226841838803 4.517281877943891 0.5809271982978448 4.512770787079745 0.5790068807189787 C 4.509232270851447 0.5774962860718107 4.505735140777865 0.5760022458865293 4.502229733473341 0.5745578690869079 C 4.47781190219035 0.564430677027674 4.460690449983954 0.5539682571152329 4.448357375878308 0.541631044394115 C 4.430375091653799 0.5236528987850784 4.414933917328911 0.5074212489050968 4.408051399799485 0.49082126224813394 C 4.403188526620245 0.47908828738588294 4.403407873240245 0.4601955077576029 4.403639635706659 0.44023082672215297 C 4.403689299092319 0.4357528447817809 4.403743101093451 0.4311258726844272 4.403743101093451 0.4264285441240554 C 4.403743101093451 0.40343853517879846 4.403085061233453 0.3917510850867357 4.402447714450812 0.3804485262335411 C 4.401872446900247 0.37027994801959 4.401330288273455 0.3606452512014879 4.401313733811568 0.34116478817622686 C 4.370467493740417 0.3034269792385205 4.337075018918316 0.2678441992229043 4.301370308785643 0.2346657962431397 C 4.301457219710548 0.2400459963563405 4.301511021711679 0.2463698007970883 4.301511021711679 0.254229031577834 C 4.301622221008367 0.26701395162438457 4.30103088732112 0.27979532531767626 4.299739694289796 0.2925153633064666 Z" fill="#a38178" transform="matrix(1,0,0,1,0,0)" fill-rule="nonzero"></path></g><g clip-path="url(#SvgjsClipPath103370169305-9f2f-43c4-a59b-d1a0661409b7)"><path d=" M 2.674472289632001 0.7894637546855343 C 2.7014329907670445 0.7923249902929786 2.7282306717414753 0.7965559849746633 2.7547614297828518 0.8021403338753313 C 2.777041630013091 0.8071017382497196 2.7990522089681704 0.8132045836007644 2.820706128708819 0.8204247370292732 C 2.8247619718710775 0.8216966715175733 2.8288150559563565 0.8229630878519117 2.832865380964654 0.8242239860322877 C 2.8376247887571004 0.8256973331402104 2.842397991934454 0.8271624030171898 2.847184990496713 0.8286191956632262 C 2.868443514370392 0.8346848116812107 2.8893754066375417 0.8418416871405981 2.9098974307392855 0.8500613624220705 C 2.9295351611524696 0.8583675636737585 2.948767307249429 0.868838260817143 2.969129295370161 0.8799297502812816 C 2.972633323136194 0.8818390315522228 2.9761345918252466 0.8837400355922207 2.9796331014373187 0.885632762401275 C 2.986867401281839 0.8895478926374971 2.9941182555882455 0.8933057554857945 3.001104238504465 0.8969353212544698 C 3.0172748297606398 0.9049209313634261 3.0329873520781643 0.9138024028246509 3.048168573648563 0.9235383415065153 C 3.067814581292692 0.9367819110159344 3.0882841734156874 0.9522230853408227 3.110744439580568 0.970755805423066 C 3.1323066261880905 0.9885518519513479 3.1528176044658034 1.0085744736034008 3.168271194637107 1.0240363410056477 C 3.1855416370004837 1.0413026447535527 3.2013511481023524 1.0604561571565503 3.218087709069881 1.0807602046606781 L 3.2198880068000673 1.0829412550142608 C 3.2250488602932696 1.0891947029919895 3.2302800702494903 1.0953239925055676 3.2353333197404277 1.1012504898610325 C 3.2473921177014677 1.1148219210494752 3.258687265456049 1.1290531163855217 3.2691665012215214 1.1438782292194756 C 3.2783186581381987 1.1582127196608836 3.2866105168625968 1.1730786403772733 3.2939981940516816 1.1883973158484813 C 3.2980292055211113 1.1963144872458311 3.302196791301107 1.2045006686488409 3.3066333870867632 1.2127034045137373 C 3.3200507784459927 1.237506127035596 3.3319410206961684 1.2598836208910427 3.341588133360686 1.2826998079864886 C 3.3481615245664385 1.299348506794741 3.35372156655304 1.3163796769167624 3.3582377834033075 1.3336999664441673 C 3.3606795665316063 1.342287593547931 3.36320412196934 1.351169062350185 3.3659728557199027 1.3601084717690428 C 3.3689981836297105 1.3698631884358246 3.37224699677499 1.3793075089422289 3.375392344533477 1.3884414332882564 C 3.381336957445992 1.4044881198845098 3.3862457835726083 1.4208997176809586 3.3900885680734594 1.4375750761682007 C 3.3928717396499266 1.4537292843826646 3.3945572566038686 1.4700534953410147 3.395133540333455 1.4864355704270142 C 3.395754332654209 1.4967572774134175 3.3963958180523215 1.5074266280994433 3.397480135305905 1.5183774046375442 C 3.4000957402840157 1.5446824445756278 3.4013621566183545 1.571103365746919 3.4013621566183545 1.5991507627985853 C 3.4012360023346444 1.6154077173639456 3.4021192261829034 1.6316568246568202 3.4040067319047655 1.647804326283809 C 3.405487946299288 1.660229795451582 3.406168084398136 1.6727377009767277 3.406042930716838 1.6852505190716962 C 3.406042930716839 1.706688547215068 3.406005683177593 1.717411699902226 3.40597257425382 1.7281307139739117 C 3.4059394653300457 1.7389325003550318 3.4059022177908007 1.749738425351623 3.4059022177908007 1.7713461367293348 C 3.4059022177908007 1.7917081248500664 3.4054593859353295 1.8015952772119426 3.404987583771556 1.8120659743553271 C 3.404482672684009 1.8232402361288993 3.4039653457500476 1.8347580029866222 3.4039653457500476 1.8574500316179172 C 3.4038502957990464 1.873538600746325 3.404646183417785 1.8896207812923198 3.406349188261743 1.9056193770929586 C 3.4077194684115293 1.9182164194532212 3.4083482424014298 1.9308831060277891 3.4082322583013633 1.9435539265064998 C 3.4082322583013633 1.9634192807706283 3.407611465980609 1.9730663934351458 3.4069534261206105 1.9832846350347568 C 3.406220891182121 1.994686520659272 3.4054635245508016 2.00646088167624 3.4054635245508016 2.0296660986260253 C 3.4054635245508016 2.0438118863082737 3.405393168087782 2.053082384964867 3.4052979799319334 2.0609291998991974 C 3.4393256763401974 2.066502535401078 3.4738693201439323 2.070432840560696 3.508928911343138 2.0727201153780523 C 3.5090903173465335 2.062183200387121 3.5092517233499296 2.0510544633837373 3.5092517233499296 2.0296785144724403 C 3.5092517233499296 2.009813160208312 3.5098725156706836 2.000166047543794 3.510530555530683 1.9899478059441835 C 3.511263090469172 1.9785459203196678 3.5120204571004923 1.9667715593027 3.5120204571004923 1.9435663423529146 C 3.5121368582353947 1.9274776372677784 3.511339581205532 1.911395302171469 3.5096324759733246 1.8953969968778774 C 3.5082663075764917 1.8827996575685904 3.5076389234610375 1.8701331315724574 3.507753544549176 1.857462447464332 C 3.507753544549176 1.837104597959072 3.508200515020119 1.827213306981725 3.5086681785684206 1.8167426098383403 C 3.5091730896559667 1.8055890411421267 3.5096904165899288 1.7940547198225167 3.5096904165899288 1.77135855257575 C 3.5096904165899288 1.7499205244323779 3.509727664129174 1.7392015103606915 3.509760773052948 1.7284783576735343 C 3.509798020592193 1.7176765712924142 3.509831129515967 1.7068706462958225 3.509831129515967 1.685262934918111 C 3.509959396849125 1.6690045550278536 3.509076166164721 1.6527539397594129 3.507186554229554 1.6366052328174039 C 3.5057092861936066 1.6241808383999392 3.505030539149943 1.6116744748479488 3.505154494032954 1.5991631786450002 C 3.505154494032954 1.5676558990589977 3.5037183944642765 1.537882699355635 3.5007634230174878 1.5081343313451026 C 3.4998777593065453 1.4991990605417163 3.4993231848333384 1.489982363886255 3.4987355014363573 1.4802276472194735 C 3.497937870063213 1.4590115749578978 3.495624000280377 1.43787970621196 3.4918115977522137 1.4169937414274678 C 3.487120069249711 1.3958362202892596 3.4810129057727313 1.37501766460149 3.473531333213745 1.3546786082701803 C 3.470510143919409 1.345900604854719 3.46765449924394 1.3376068194494453 3.4651051121133767 1.329379251891719 C 3.462700576524323 1.3216276251132368 3.4604533083231934 1.3137228695623022 3.4580694658114974 1.3053504504630666 C 3.4524326180508282 1.2839087238093283 3.4454521566348246 1.2628429352984567 3.4371694576794476 1.2422779506744601 C 3.425730324515685 1.2152362371824135 3.412623329316832 1.1905245642009317 3.397910551314961 1.1633297219364338 C 3.39409474785006 1.156294075634555 3.390398964233837 1.149014251019846 3.3864879726130876 1.1413288420889114 C 3.377228043131373 1.1222203667594597 3.366789653718483 1.103705771131061 3.355233148570859 1.0858920878455767 C 3.3425913186274796 1.0677894951575708 3.3289196266295358 1.050428353226889 3.314285687093925 1.0338945230592211 C 3.3092821009886464 1.0280301049358316 3.3045558021199724 1.0224926374347056 3.2999371072535624 1.0168972293169758 L 3.298145086754319 1.014724456194337 C 3.2805890799233954 0.9934436954388892 3.262437112464548 0.9714386769758949 3.2416571241811756 0.9506586886925219 C 3.2245605036676093 0.9335620681789567 3.201740177956692 0.9113004555567173 3.1767884652778524 0.8907149822005141 C 3.1517125941348616 0.870021904842047 3.1286067039563963 0.8526107495526325 3.106150576406988 0.8374799713881212 C 3.0877144958114298 0.8254981997073295 3.068599268898541 0.8145953485295168 3.0489011085870534 0.8048262953164609 C 3.041985482133853 0.8012381157025019 3.03545474691952 0.7978485896311847 3.0290067840146215 0.7943597367885471 C 3.025588287635003 0.7925139142881718 3.0221697912553847 0.7906570554798719 3.018751294875765 0.7887891603636479 C 2.9970773656505063 0.7769858290383783 2.9746667628712866 0.7647851906278258 2.950315149435842 0.754480038103309 C 2.92649179521937 0.7448368662476302 2.9021784332488885 0.736451519249857 2.877475517134039 0.7293586421901307 C 2.872840267805741 0.7279459947757922 2.8682132957083875 0.7265278292074915 2.8635946008419775 0.7251041454852286 C 2.8596436026050007 0.7238763562286261 2.8556912248295334 0.722641669279571 2.8517374675155756 0.7214000846380632 C 2.8266587577995463 0.7130758666970126 2.8011601074210266 0.7060747203042107 2.775346903139055 0.70042558142752 C 2.745396367358554 0.6941459533557978 2.7151452323633327 0.6893969395606578 2.6847112243089732 0.6861970214358393 C 2.670660624782571 0.6848023080218781 2.6204923280347026 0.6840614958524449 2.568176089857026 0.6836683273826342 C 2.5570966533113637 0.7176980116977167 2.5477574975583415 0.7522698783131042 2.540194910652907 0.787249595408176 C 2.598743903730954 0.7875144667983666 2.660992819040696 0.7881269818881773 2.674472289632001 0.7894637546855343 Z" fill="#a38178" transform="matrix(1,0,0,1,0,0)" fill-rule="nonzero"></path></g><g clip-path="url(#SvgjsClipPath103370169305-9f2f-43c4-a59b-d1a0661409b7)"><path d=" M 2.6799352620546375 0.9526783330427091 C 2.6995948792605216 0.955943003619455 2.718975985498078 0.9607066493059131 2.7379089875821205 0.9669275861117492 C 2.746297961143242 0.9694107553947657 2.7549724991719113 0.9720139445264608 2.7638084432039767 0.9744308959619297 C 2.7731327438617024 0.9769802830924927 2.782386688056409 0.9792482443709809 2.791342651937154 0.9814458491864502 C 2.810389966021756 0.9855486932387076 2.829089411694462 0.9911264248878622 2.84727190142162 0.9981286081528462 C 2.8620624982570755 1.0050976612809182 2.876212913078102 1.0133513775006595 2.8895602743113824 1.0227947563641393 C 2.898880436353636 1.028940600339604 2.9085234104026823 1.0352975137041254 2.918869949081916 1.041335753677326 C 2.942538259611735 1.055590613821972 2.965267342190073 1.0713497393172313 2.986917064667502 1.0885159700546325 C 3.008659486129936 1.1055565406514416 3.029275673932246 1.1239871056471098 3.048636237196866 1.14369199152325 C 3.056114715354215 1.151166331065127 3.063618025204395 1.1581771456741756 3.0708730181262736 1.1649148116620927 C 3.084044124831787 1.1764861967047406 3.096281382189303 1.1890790997866585 3.1074707947424596 1.202576212454503 C 3.117942460634813 1.217110853251304 3.12725543714546 1.2324461289854767 3.135323676866956 1.2484403491118095 C 3.1398761538858184 1.256825184057461 3.1445527893688325 1.2654914448551868 3.149651563629959 1.2742280621159319 C 3.1568022402185725 1.28609128717721 3.1645686178823995 1.2975723196859374 3.172918859811821 1.3086240953011765 C 3.1817559776951096 1.3197112795877766 3.1893761443345987 1.3317159558013345 3.1956481359823603 1.3444313963622678 C 3.2049441586810086 1.3680869018529167 3.2126508363380557 1.3923365285890033 3.21871677862158 1.4170185731202987 C 3.219663142026107 1.4205226008863328 3.2206136440461064 1.4240197309599139 3.2215682846815765 1.4275099633410424 C 3.2285839267188683 1.4555538109443509 3.233713493072988 1.4840360392178933 3.2369225480815604 1.5127654420579273 C 3.240636458920828 1.541414270531002 3.2424338545394833 1.5702790615545965 3.2423027481947613 1.5991673172604723 C 3.2423027481947613 1.6222235440532762 3.2429938969785335 1.633931687222697 3.2436643526849482 1.6452756322306088 C 3.244268590543815 1.6555600916777673 3.2448438580943813 1.6652734221898315 3.2448438580943813 1.6852670735335826 C 3.2449877341643134 1.6974064276598413 3.2441893436207474 1.7095386430601516 3.242455876967214 1.7215544539893923 C 3.240123850403742 1.7380522676765326 3.2390309571447897 1.7547015972607096 3.239186370744576 1.7713626911912221 C 3.239077802887673 1.787370980427979 3.239833510020166 1.8033734588844115 3.2414501934075926 1.8193002741998483 C 3.2427678903187527 1.8319784268964834 3.243371701571581 1.8447206405660108 3.243258768368722 1.857466586079805 C 3.243258768368722 1.879951683937515 3.243672629915891 1.8913784012548605 3.244086491463061 1.9024326431797536 C 3.244475521317401 1.9130109443254024 3.244847996709853 1.9230015620740701 3.244847996709853 1.943570480968387 C 3.244847996709853 1.9635931026204398 3.2442810063902314 1.9733188489789193 3.2436850457623074 1.9836198628879644 C 3.2431180554426855 1.9933745795547455 3.2425386492766477 2.003439692381904 3.242385520504195 2.020768075361885 C 3.2763822916136265 2.0320863702936096 3.3109334397624743 2.0416658774463805 3.3459047092976597 2.049469373658078 C 3.3460495608391727 2.043857411078463 3.346136471764078 2.0374094481735643 3.346136471764078 2.029678514472441 C 3.346136471764078 2.009655892820388 3.3467034620837 1.9999260078464365 3.3472994227116235 1.9896291325528634 C 3.3479574625716237 1.9783100192377814 3.3486361955089814 1.9666018760683606 3.3486361955089814 1.943570480968387 C 3.3486361955089814 1.9210853831106764 3.348222333961812 1.9096586657933305 3.347808472414642 1.8986044238684374 C 3.3474194425603025 1.8880261227227886 3.347051105783322 1.8780355049741206 3.347051105783322 1.8574665860798045 C 3.3471610031600485 1.8414581675306152 3.34640390756041 1.825455542839683 3.344783144504835 1.8095290030711881 C 3.343469441222988 1.7968505755192419 3.3428670186376364 1.784108508817143 3.342978708159176 1.7713626911912221 C 3.3428340605913203 1.759223460383088 3.343631064362068 1.7470912918728212 3.3453625506708713 1.7350753107354153 C 3.347698652809271 1.7185778795654083 3.3487929428081475 1.7019283471551978 3.348636195508982 1.6852670735335826 C 3.3486361955089814 1.6622108467407786 3.3479450467252088 1.6505027035713578 3.3472745910187944 1.639158758563446 C 3.346666214544456 1.6288742991162877 3.3460950856093614 1.6191609686042234 3.3460950856093614 1.5991673172604721 C 3.3462304413676898 1.565696430038136 3.344131637364867 1.5322538271262278 3.339812667323331 1.49906248623116 C 3.3360133176227427 1.4657196366532133 3.3299570430434624 1.4326728415744956 3.3216855315573133 1.400149576457678 C 3.3207557226146727 1.3967393573090021 3.319825913672032 1.3933194813908927 3.318896104729391 1.3898899487033494 C 3.311656412009168 1.360670642051663 3.302417966659621 1.331983201964599 3.291246014763008 1.3040302321275972 C 3.2820106513055465 1.2838715365373368 3.2704279135300065 1.2648735128124282 3.2567382389600272 1.2474305269367174 C 3.250178533437393 1.2384497313631422 3.2439830260762674 1.2299697082616425 3.239302251977783 1.2219490714775008 C 3.2350477552728814 1.214656831016377 3.2309505259559055 1.2070873033186493 3.2266132569415706 1.199074943765451 C 3.2159597741678434 1.1781146052975386 3.20358563642672 1.1580742884748256 3.189618173240101 1.1391602075817446 C 3.1750409768755494 1.1211305846015625 3.158982441625099 1.104350799621329 3.1416102337684584 1.0889960494493482 C 3.134711161777146 1.0825729182372803 3.128192842409229 1.076501569340306 3.1220180281254626 1.070322616441068 C 3.0995367132984715 1.0474890075822794 3.0755984007893513 1.0261372383108922 3.050353762617616 1.0064017004807604 C 3.0251718932922023 0.9864797642925234 2.998721394782348 0.9682161602673476 2.971169632797707 0.9517264514842203 C 2.963277293093188 0.9471201724642254 2.9552194087698003 0.9417937743521558 2.946685583667169 0.9361818117725395 C 2.9281036863639667 0.9231778090267327 2.9083550660210284 0.9119263325425885 2.8876937587336506 0.9025721155269176 C 2.8644475721447864 0.8933334078380244 2.840485250036714 0.8860098954608401 2.816046047687694 0.8806747010661874 C 2.807354955197138 0.8785474527137367 2.7991770510250715 0.8765360855944936 2.791189523164703 0.8743508966254395 C 2.783479282540938 0.8722443413503472 2.7757359329934 0.8699391325326141 2.7675414743594464 0.8674932107888434 C 2.7434152528437354 0.8596379715029979 2.7186972789169706 0.8537325070715586 2.693625802035003 0.8498337385711275 C 2.674923398718419 0.8473505692881111 2.5969436060007705 0.8455833804816985 2.5294427876574503 0.8445652810756614 C 2.5240294786204753 0.8785764230220384 2.520263338541234 0.9130979942099239 2.518144367419727 0.9481299946393188 C 2.584147006962292 0.9489535791181849 2.6634511566308814 0.9504848668427117 2.6799352620546375 0.9526783330427091 Z" fill="#e3c19e" transform="matrix(1,0,0,1,0,0)" fill-rule="nonzero"></path></g><g clip-path="url(#SvgjsClipPath103370169305-9f2f-43c4-a59b-d1a0661409b7)"><path d=" M 2.6574336097350395 1.1204867745734635 C 2.6787270578166797 1.1231352931102305 2.6998142870472273 1.1272379691185603 2.7205474956783635 1.1327660466779779 C 2.730447063886656 1.1354727011964654 2.73991621608589 1.1374302663145766 2.7490708335092764 1.1393216135851405 C 2.760859007605152 1.1413241521615027 2.7724389547569612 1.1444023484255674 2.7836655202371614 1.1485176171632432 C 2.7939142295057686 1.153450753958389 2.8037022502087314 1.1592886635753386 2.8129131157756184 1.1659618813764305 C 2.820503336550705 1.1710730714839728 2.828354290100507 1.1763539448258535 2.8370536598220077 1.1814320260096214 C 2.846665333566121 1.1868659145303333 2.8565488636599463 1.191804226212433 2.866665453521975 1.1962275763209258 C 2.87591447395878 1.199980897318901 2.8847550893064557 1.2046709304335426 2.89304912715402 1.2102243738461924 C 2.8996895779267593 1.2163359639247147 2.9056367504157183 1.22316029230936 2.9107830944502258 1.2305739461205092 C 2.917937885384179 1.240292113389745 2.92573595718401 1.2495198316862108 2.934124885710577 1.2581950657785907 C 2.941483344019249 1.2655535240872624 2.948775584480373 1.2719187146827267 2.955827785244138 1.27806042004272 C 2.9644208930979206 1.2850478216340793 2.9723686521332633 1.292793354663991 2.979575160820715 1.30120355776043 C 2.9922595324738737 1.3177876918456772 3.003850122807772 1.3351804896737742 3.014273312935394 1.3532714790098044 C 3.017128957610862 1.3581633224973468 3.020025988441048 1.362980670906398 3.0228236924999123 1.3676407519275247 C 3.031086842064338 1.3806428111806335 3.038452766809556 1.3941937896869478 3.044870097117622 1.4081991835501206 C 3.049124820159909 1.4197323224379605 3.052344943169618 1.431621155089723 3.05449237808931 1.4437250587591373 C 3.056387863975347 1.4526230820232782 3.0583454290934577 1.4618273628323244 3.060961034071568 1.4713875645719363 C 3.0624426584104345 1.4768008736089115 3.063965668904018 1.4821479647983395 3.065443154627412 1.4872881252141827 C 3.07027493082709 1.50265747820216 3.0740090782619243 1.5183505785514442 3.076617416400986 1.5342489949714881 C 3.0794097090925034 1.5557693257893017 3.080782557954611 1.5774501071141618 3.080727061564376 1.5991507627985857 C 3.080727061564376 1.6222069895913895 3.081418210348149 1.6339151327608101 3.0820886660545637 1.645259077768722 C 3.082697042528902 1.6555435372158802 3.0832723100794674 1.665256867727945 3.0832723100794674 1.6852505190716962 C 3.0834672129803535 1.6965670922445604 3.082430601329994 1.707871293722243 3.0801807643221126 1.718963680704111 C 3.0768008442584307 1.7362151735349138 3.0751990977057586 1.7537678195238133 3.0754006634523066 1.7713461367293353 C 3.075201812491228 1.7886079712925764 3.0766220562518054 1.8058504233478239 3.0796427443107928 1.8228470676590898 C 3.0817277135220054 1.8342597949273602 3.082685581774234 1.8458498621587418 3.082502527601734 1.8574500316179172 C 3.0826727358840986 1.8693373363745869 3.081798891723929 1.8812166314711671 3.0798910612390937 1.8929510751341003 C 3.077238550296478 1.9096850808834616 3.075992608654456 1.9266118902801275 3.076166307314569 1.9435539265064996 C 3.076166307314569 1.9454618282389504 3.076166307314569 1.947278680431024 3.076166307314569 1.949016898929135 C 3.110163971312908 1.967284039433644 3.1451366045008404 1.983675432004324 3.1809270807495453 1.9981174328853062 C 3.180819476747282 1.9933373320155001 3.18069117966766 1.989165607620033 3.1805670212035095 1.9850476852256984 C 3.1802483478121886 1.9743783345396728 3.1799462288827547 1.9643008058660991 3.1799462288827547 1.9435539265064996 C 3.1797781272440893 1.9316666841237076 3.180651957855476 1.919787573213279 3.1825576952453924 1.9080528829903152 C 3.1852100519129474 1.8913188593681007 3.1864559926007323 1.874392062935274 3.1862824491699184 1.8574500316179174 C 3.186483443642056 1.8401881213548765 3.185063183378121 1.8229454689408167 3.182040368311432 1.805949100688165 C 3.1799551867801465 1.7945364015196292 3.178997316795529 1.7829463133265944 3.179180585020493 1.7713461367293348 C 3.1789849754316473 1.7600297383735166 3.180020192755291 1.748725609260377 3.1822679921623753 1.737632975096919 C 3.1856503109561864 1.7203817703162527 3.1872534539309076 1.702829018905305 3.1870522316476526 1.6852505190716958 C 3.1870522316476526 1.6621942922788913 3.1863610828638804 1.650486149109471 3.1856906271574656 1.6391380654860874 C 3.185082250683127 1.6288536060389291 3.184506983132561 1.6191402755268647 3.184506983132561 1.5991507627985853 C 3.1845611439700603 1.5728730235392168 3.182885521009424 1.546620214628725 3.1794909811808703 1.5205625936066052 C 3.1762846250133006 1.4996238361549246 3.171510414224055 1.4789554185393534 3.165208619188055 1.4587316784594977 C 3.163751826542018 1.4536370428138434 3.162373667589945 1.4488279716357357 3.161070003716361 1.4440106232266845 C 3.159236597062401 1.437306066162541 3.1576639231831574 1.4299393306229267 3.156000199763537 1.422104931535011 C 3.1525934218803977 1.4035316245746494 3.147387341912065 1.38533390788023 3.140455560051855 1.367769049007147 C 3.1321981329717596 1.349242925234733 3.1226144161110927 1.331336907269919 3.111779093448491 1.314190533110603 C 3.109026914159816 1.309613224398911 3.1064278636435927 1.3052883712309913 3.103915724052274 1.3009759339094866 C 3.091231830916077 1.2790133160034103 3.077130680996903 1.257900300163643 3.0617018462409993 1.237770998425784 C 3.050455701726217 1.2239256910863716 3.0378545044542538 1.2112385355977882 3.024085970218779 1.1998985282443175 C 3.018068423322937 1.1946466252107384 3.012386104280302 1.1896844252601777 3.0075066766391747 1.1848049976190513 C 3.0023748487462205 1.179304682299957 2.9975791574765447 1.1735000992069777 2.993145680952398 1.1674228126379393 C 2.982740372883647 1.152736896721166 2.970411835920737 1.1395133333083132 2.956489963719609 1.1281059656568515 C 2.9419813867701907 1.1175089477869808 2.9262643625994524 1.1086744603210814 2.9096698068883406 1.1017885098723528 C 2.902158219807217 1.098365874877262 2.895060494273263 1.0951336161938696 2.8893616207687414 1.0918103079700998 C 2.8835344501845976 1.0884083660523678 2.87735963590083 1.0842656119652025 2.8708578709948 1.0798786795652073 C 2.8561923685171995 1.0693851617584844 2.8405277816179737 1.0603634687018324 2.824091516164664 1.052944570075427 C 2.8066399309660506 1.0460633292913535 2.7885402863381152 1.040955386070171 2.7700660297971775 1.0376979106777078 C 2.7621405811688846 1.0360424644890303 2.7546579643960625 1.0345111767645039 2.7479202984081454 1.0326694928796003 C 2.722694306302502 1.025902740416556 2.6970340356574023 1.0208735652084822 2.671120011099932 1.0176173484090514 C 2.654888361219948 1.015461129748299 2.5792427476283346 1.0139670895630175 2.516133000300481 1.0131269506222638 C 2.516133000300481 1.0481423965897716 2.517825694028404 1.0827329447021854 2.5212110814842497 1.1168985949595056 C 2.579255163474751 1.1176021595896934 2.644732198852412 1.1187940808455412 2.6574336097350395 1.1204867745734635 Z" fill="#b07b6d" transform="matrix(1,0,0,1,0,0)" fill-rule="nonzero"></path></g><g clip-path="url(#SvgjsClipPath103370169305-9f2f-43c4-a59b-d1a0661409b7)"><path d=" M 2.634907125722612 1.2802704407046046 C 2.641942772024491 1.281925886893282 2.6492101807927844 1.283668244006865 2.6568417877225867 1.2852078089623349 C 2.6672297125565376 1.2873060870064836 2.6770299539935074 1.2885187013396897 2.6865073834236854 1.2896940681336506 C 2.6998295866270667 1.291349514322328 2.7124151162764862 1.2929056337396847 2.7210606839968534 1.29656003120119 C 2.731230911252465 1.3018129670521192 2.740744083679389 1.3082504730431188 2.74940192274701 1.3157383752970175 C 2.756598975052285 1.3213834468004075 2.7640402056703897 1.3272188946154952 2.7724457336933996 1.3328805205807719 C 2.7894121373694363 1.3446121761461511 2.8051967009763503 1.3579669592821382 2.8195762866850442 1.3727560806505383 C 2.8245757341748505 1.377755528140344 2.8295089638171085 1.3824321636233576 2.834284926071443 1.3869598089493902 C 2.844832665841728 1.3961603143795596 2.854390889867709 1.4064370350018924 2.862804125286883 1.4176228109791673 C 2.8744611175100037 1.434961998248246 2.8844204893066485 1.4533839255960064 2.8925442160664727 1.4726332878289166 C 2.898570689275503 1.4889085628130878 2.9029491954586684 1.5057473714244078 2.9056139637260796 1.5228967727326332 C 2.906412716512116 1.5270353882043268 2.9072156079136247 1.5311740036760204 2.9080516082389067 1.5353126191477138 C 2.9125461446411656 1.557557677308066 2.9167882254996518 1.578565289442382 2.9167882254996518 1.5991631786450005 C 2.9166457421143868 1.6156354760795768 2.917639991378971 1.632097976072462 2.9197638900237983 1.6484333958355069 C 2.9213794866487643 1.6606428342072421 2.922122183194269 1.6729519575871101 2.921986326532099 1.6852670735335824 C 2.921986326532099 1.7048758336384662 2.9212827619019115 1.714407065069776 2.920537811117007 1.724492870974293 C 2.9197100880226676 1.7354767564361677 2.9188078698498394 1.7479257117750213 2.9188078698498394 1.7713626911912215 C 2.9189162797413917 1.784160825293064 2.9183318801306037 1.7969554465590143 2.917057235505313 1.8096904090745711 C 2.9162708985656915 1.8182656203319236 2.9154017893166357 1.8277389111466298 2.91504586838607 1.8424351346866135 C 2.9496224352350358 1.8701311684154442 2.985893367959295 1.8956428716771967 3.02364727697878 1.9188215604476608 C 3.0229933757342504 1.9084046653054068 3.0219918307901 1.9007647811446609 3.021060642308969 1.8937167189963668 C 3.019317346077412 1.8817143286225517 3.0185147700185215 1.869594046381475 3.0186602453353872 1.857466586079804 C 3.0185505741254532 1.8446697052137078 3.0191363620281098 1.8318763184717208 3.0204150182953846 1.8191430068119232 C 3.021973554745859 1.8032650804853887 3.022701563553844 1.7873165763331968 3.0225960686489675 1.771362691191221 C 3.0225960686489675 1.751753931086338 3.023299633279156 1.7422268382704995 3.02404458406406 1.732136893750511 C 3.024872307158399 1.7211530082886364 3.0257745253312276 1.7087040529497828 3.0257745253312276 1.6852670735335826 C 3.0259179401565928 1.6687935073418936 3.0249250759629156 1.6523296618127468 3.0228029994225527 1.6359927177276044 C 3.021183351247153 1.623783635435893 3.0204392600832852 1.611474320643292 3.0205764242987803 1.5991590400295288 C 3.0205764242987803 1.5681815032239028 3.014844441870485 1.5397988783190293 3.0097870537640756 1.5147561160998122 C 3.009004855439925 1.5108906492492504 3.0082557660395497 1.5070251823986889 3.0075066766391725 1.5031679927790704 C 3.0032894274735167 1.4814195684753213 2.998513465219183 1.4567658361104434 2.988133817616175 1.4322238463633012 C 2.9774054960829144 1.4068201552971271 2.9642542830572913 1.3825093293215303 2.948862495405276 1.3596283923743262 C 2.9363090629095208 1.3420737181806868 2.9218272896017874 1.3259816249882748 2.905688458804569 1.3116535618264555 C 2.9012146154796694 1.3074114809679702 2.896997366314014 1.3034053011913709 2.8929663548445843 1.299382566952885 C 2.873898603016128 1.27987320339112 2.8529678750672676 1.2622761443639148 2.830473261222012 1.2468428435397358 C 2.8251592789563578 1.2432588025412499 2.8194728212982523 1.2388015136782362 2.813451135786938 1.2340834920405053 C 2.7977284688602873 1.2207265798823317 2.780249985442052 1.209586692426477 2.761503234386242 1.200974568266958 C 2.7395396020779645 1.1916833765330057 2.7181512373202534 1.189034662631122 2.69927915076933 1.1866963448896153 C 2.6913826724493393 1.1857196316382959 2.683924887369347 1.184796720388108 2.67740656800143 1.1834806406681095 C 2.6715173181852103 1.1822887194122618 2.665404583133519 1.1808360653816976 2.658931788535791 1.1792965004262275 C 2.648171388309388 1.1767429746801925 2.5856782946868164 1.1739990726224598 2.5280439356280135 1.1720622005817072 C 2.5332947903554226 1.207018046067797 2.540297871007547 1.2416881297696352 2.5490267160694997 1.2759414489212164 C 2.590541167866058 1.2771706177163062 2.628314311276204 1.2787019054408328 2.634907125722612 1.2802704407046046 Z" fill="#b9aaa3" transform="matrix(1,0,0,1,0,0)" fill-rule="nonzero"></path></g><g clip-path="url(#SvgjsClipPath103370169305-9f2f-43c4-a59b-d1a0661409b7)"><path d=" M 2.643966554990149 1.446572426203663 C 2.6475050712184474 1.4480788822353592 2.6510022012920285 1.4495729224206406 2.6545034699810808 1.4510214378357333 C 2.6789213012640727 1.4611444912794955 2.6960427534704685 1.4716069111919365 2.708379966191586 1.4839441239130546 C 2.7263581118006233 1.501922269522091 2.7417992861255116 1.5181539194020728 2.7486818036549376 1.534758044674507 C 2.7535488154496486 1.5464868809212864 2.7533294688296497 1.56536310608768 2.7530977063632345 1.5853484802004876 C 2.753043904362103 1.5898223235253885 2.7529901023609704 1.5944534342382133 2.7529901023609704 1.5991507627985853 C 2.7529901023609704 1.6221407717438425 2.7536522808364414 1.633824083220433 2.754289627619082 1.645126642073628 C 2.7548648951696473 1.6552952202875788 2.7554070537964397 1.6649299171056813 2.7554194696428542 1.6844145187464137 C 2.7862669555294444 1.722149940952143 2.819659358724056 1.7577312618765604 2.8553628946687803 1.7909093720640303 C 2.8552759837438746 1.7855291719508284 2.855222181742742 1.7792095061255524 2.855222181742742 1.7713461367293348 C 2.8551118686819894 1.75857087285474 2.8557032014658548 1.7457991900181826 2.856993509164627 1.7330887753090005 C 2.8585780218893104 1.7171931112985508 2.8593184941778063 1.7012246053606248 2.8592118070574553 1.6852505190716962 C 2.8592118070574553 1.6622605101264385 2.8585496285819834 1.650573060034376 2.8579122817993428 1.6392705011811812 C 2.8573287370178337 1.6289529328102497 2.8567783011600993 1.6192106319898831 2.8567783011600993 1.5991507627985848 C 2.8567783011600993 1.5949583453257596 2.8568279645457597 1.5907535120065188 2.8568776279314196 1.58655281730275 C 2.857204578553683 1.5583605687095743 2.8575770539461365 1.5264021800371574 2.8445569696721877 1.4950025044534192 C 2.8303863502971094 1.4608299565036462 2.806771410415626 1.4355554318180146 2.7817700343511267 1.4105540557535143 C 2.7594835900360573 1.3882676114384451 2.731692787143636 1.370661941221861 2.69426314881764 1.3551462718184824 C 2.6910722762889647 1.353826053483012 2.687864849298401 1.3524561717618817 2.684632590615009 1.3510821514252793 C 2.6726719919018147 1.3459875157796248 2.6207199518856474 1.3402927808905742 2.566189554430615 1.3357692741800136 C 2.5775918174604047 1.3715277337749328 2.59089712974556 1.406651216231355 2.606048560038492 1.4409894339323435 C 2.6252103496724337 1.4427566227387614 2.6394554641260024 1.444647970009325 2.643966554990149 1.446572426203663 Z" fill="#d18f53" transform="matrix(1,0,0,1,0,0)" fill-rule="nonzero"></path></g></g></g><defs><clipPath id="SvgjsClipPath1034"><path d=" M 2.516133000300481 -0.04943360142672959 h 2.1244672028534586 v 2.1244672028534586 h -2.1244672028534586 Z"></path></clipPath><clipPath id="SvgjsClipPath103370169305-9f2f-43c4-a59b-d1a0661409b7"><path d=" M 2.516133000300481 -0.04943360142672959 L 4.640600203153939 -0.04943360142672959 L 4.640600203153939 2.075033601426729 L 2.516133000300481 2.075033601426729 Z"></path></clipPath></defs></svg>